<?xml version="1.0" standalone="no"?>
<!DOCTYPE svg PUBLIC "-//W3C//DTD SVG 20010904//EN"
 "http://www.w3.org/TR/2001/REC-SVG-20010904/DTD/svg10.dtd">
<svg version="1.0" xmlns="http://www.w3.org/2000/svg"
 width="428.000000pt" height="428.000000pt" viewBox="0 0 428.000000 428.000000"
 preserveAspectRatio="xMidYMid meet">
<metadata>
Created by potrace 1.11, written by Peter Selinger 2001-2013
</metadata>
<g transform="translate(0.000000,428.000000) scale(0.100000,-0.100000)"
fill="#000000" stroke="none">
<path d="M0 2140 l0 -2140 2140 0 2140 0 0 2140 0 2140 -2140 0 -2140 0 0
-2140z m808 1437 c12 -13 19 -27 15 -31 -4 -3 -123 -6 -265 -6 -272 1 -281 3
-264 45 5 13 42 15 249 15 242 0 244 0 265 -23z m142 -152 l24 -25 -340 2
-339 3 -3 23 -3 22 319 0 319 0 23 -25z m265 -138 c132 -49 244 -92 249 -97
32 -31 -31 -18 -236 49 l-233 76 -350 5 -350 5 -3 28 -3 28 343 -3 343 -3 240
-88z m-95 -108 c0 -40 -17 -61 -31 -38 -10 16 -12 83 -2 92 14 14 33 -17 33
-54z m76 7 c9 -36 1 -71 -16 -71 -16 0 -26 54 -16 81 8 22 25 17 32 -10z m72
-45 c2 -18 1 -40 -3 -49 -6 -15 -8 -15 -21 2 -15 21 -19 68 -7 80 14 13 28 -1
31 -33z m66 3 c11 -29 7 -74 -8 -74 -16 0 -26 21 -26 54 0 36 23 50 34 20z
m69 -34 c7 -35 -1 -62 -17 -57 -17 6 -20 87 -3 87 8 0 17 -13 20 -30z m-190
-70 l246 -70 388 -1 388 0 118 -146 c65 -79 117 -147 114 -149 -3 -3 -103 21
-223 52 -121 31 -231 59 -247 62 -15 2 -30 8 -32 13 -3 4 43 34 102 66 l108
58 -385 5 -385 5 -205 55 -205 54 -355 6 -355 5 -3 28 -3 27 344 0 344 0 246
-70z m-263 -40 l0 -30 -332 2 -333 3 -3 28 -3 27 335 0 336 0 0 -30z m550
-180 c96 -24 140 -30 227 -30 97 0 140 -7 416 -67 169 -37 307 -71 307 -75 0
-3 -25 -10 -55 -13 -44 -6 -99 1 -269 34 -117 22 -218 41 -224 41 -8 0 -12
-22 -12 -65 0 -37 -4 -65 -10 -65 -6 0 -10 -28 -10 -65 0 -36 -3 -65 -7 -65
-25 1 -42 30 -45 76 l-3 49 -72 3 -73 3 0 -71 c0 -41 -4 -70 -10 -70 -6 0 -15
-12 -21 -27 -15 -37 -17 -28 -22 105 l-5 112 113 0 113 0 4 45 c2 24 2 49 0
55 -2 6 -48 10 -113 10 -79 0 -141 7 -225 25 -64 14 -147 25 -185 25 -67 0
-70 -1 -67 -22 3 -21 9 -23 66 -26 46 -2 62 -7 62 -17 0 -13 -76 -15 -550 -15
l-550 0 0 63 c0 35 3 67 7 70 3 4 251 7 550 7 l544 0 119 -30z m1574 -120 c4
-5 4 -14 0 -22 -5 -7 -9 -23 -9 -35 -1 -18 5 -23 22 -23 27 0 39 -21 28 -47
-4 -10 -9 -36 -11 -58 -12 -160 -13 -155 6 -155 10 0 21 -6 24 -12 8 -18 0 62
-9 88 -6 19 1 25 49 48 91 43 177 59 301 54 89 -4 122 -10 174 -31 36 -14 68
-24 71 -22 11 7 20 62 14 79 -3 8 -14 16 -25 19 -19 5 -18 7 6 44 29 42 50 57
65 48 6 -3 25 -1 44 6 31 11 36 10 76 -22 l42 -34 -26 -9 c-31 -12 -34 -36 -7
-53 22 -14 67 -106 54 -110 -5 -2 -6 -55 -4 -120 3 -110 2 -116 -15 -108 -35
13 -78 25 -82 21 -2 -2 12 -9 31 -15 72 -24 117 -108 117 -217 0 -49 2 -53 31
-63 34 -12 35 -34 1 -39 -26 -4 -26 1 -2 -47 41 -81 22 -204 -46 -284 -64 -77
-207 -105 -301 -60 -85 41 -153 140 -153 225 l0 41 -102 -4 c-57 -3 -146 0
-198 5 -52 5 -96 8 -98 7 -1 -1 5 -18 13 -38 31 -75 13 -150 -48 -204 -34 -30
-90 -53 -130 -53 -27 0 -89 28 -116 53 -31 29 -61 94 -61 135 0 39 23 99 51
128 l20 21 -31 13 c-17 7 -29 18 -27 24 5 12 12 12 74 3 l42 -7 -20 45 c-11
25 -23 67 -26 94 -5 45 -8 50 -58 80 -28 17 -72 35 -96 39 -38 6 -44 11 -47
35 -2 18 1 27 11 27 45 0 113 61 102 92 -3 8 10 47 30 86 l35 70 52 9 c28 4
50 13 47 18 -2 6 -8 9 -13 7 -30 -10 -109 -21 -117 -16 -21 13 -7 33 27 40 66
12 155 122 112 137 -10 3 -10 7 0 20 8 9 11 21 7 27 -16 25 3 38 47 33 24 -3
47 -9 52 -13z m-1699 -40 c0 -13 -69 -15 -547 -18 -453 -2 -548 0 -548 11 0 8
3 17 6 20 4 4 250 5 548 4 473 -2 541 -4 541 -17z m-996 -56 c18 -23 21 -41
21 -140 0 -107 1 -114 20 -114 19 0 20 7 20 120 0 110 2 121 22 140 26 24 56
26 86 4 21 -14 22 -22 22 -140 l0 -124 25 0 25 0 0 124 c0 118 1 126 22 140
33 23 64 19 87 -10 18 -23 21 -41 21 -140 0 -107 1 -114 20 -114 19 0 20 7 20
120 0 107 2 122 20 140 24 24 57 26 88 4 21 -14 22 -22 22 -140 l0 -124 25 0
25 0 0 124 c0 118 1 126 22 140 33 23 64 19 87 -10 18 -23 21 -41 21 -140 0
-107 1 -114 20 -114 19 0 20 7 20 120 0 110 2 121 22 140 28 25 62 26 88 0 18
-18 20 -33 20 -139 l0 -120 53 -3 c38 -2 52 -7 52 -18 0 -12 -73 -14 -550 -15
l-550 0 -3 140 c-3 133 -2 141 19 158 31 25 64 21 88 -9z m1619 -2 c9 -6 5
-12 -13 -22 -25 -13 -25 -14 -25 -157 0 -89 -4 -143 -10 -143 -5 0 -10 9 -10
19 0 11 -4 23 -10 26 -6 4 -10 63 -10 146 l0 139 33 0 c17 0 38 -4 45 -8z m87
-12 c18 -1 18 -2 -5 -21 -14 -12 -26 -25 -26 -30 -1 -5 -2 -84 -3 -175 -1
-147 -3 -165 -16 -154 -12 10 -15 46 -15 202 l0 190 23 -6 c12 -3 31 -6 42 -6z
m95 -21 c0 -4 -9 -13 -20 -19 -19 -10 -20 -21 -20 -190 0 -153 -2 -180 -15
-180 -13 0 -15 29 -15 198 0 109 2 201 5 204 8 7 65 -3 65 -13z m70 -8 c0 -5
-7 -14 -15 -21 -11 -10 -15 -46 -17 -176 -4 -231 -22 -216 -26 21 l-2 185 30
0 c16 0 30 -4 30 -9z m60 -10 c0 -5 -7 -14 -15 -21 -12 -10 -15 -42 -15 -166
0 -96 -4 -154 -10 -154 -6 0 -10 65 -10 175 l0 175 25 0 c14 0 25 -4 25 -9z
m50 -10 c0 -6 -4 -13 -10 -16 -6 -4 -10 -67 -10 -156 0 -114 -3 -150 -12 -147
-7 3 -12 14 -11 26 0 12 1 85 2 162 1 133 2 140 21 140 11 0 20 -4 20 -9z m47
-19 c-14 -16 -17 -43 -17 -165 0 -91 -4 -147 -10 -147 -6 0 -10 62 -10 165 l0
165 27 0 c25 0 25 -1 10 -18z m-641 -78 c36 -8 56 -23 48 -36 -3 -5 5 -22 18
-36 22 -24 36 -46 69 -114 24 -48 -1 -36 -85 41 -51 48 -88 74 -118 82 -24 7
-45 14 -47 15 -1 2 12 21 30 44 28 35 35 39 44 26 6 -8 24 -18 41 -22z m-61
-94 c14 -5 63 -42 108 -82 45 -39 84 -73 86 -74 2 -2 -7 -13 -20 -24 -21 -18
-17 -18 28 4 57 28 80 26 89 -10 6 -22 11 -24 68 -24 33 0 90 9 126 20 74 22
137 25 175 8 21 -10 32 -8 65 11 49 27 71 22 123 -28 43 -41 67 -80 67 -111 0
-11 7 -32 16 -45 9 -14 14 -31 11 -39 -8 -20 -45 -8 -64 21 -10 15 -22 22 -33
18 -15 -5 -19 3 -25 42 -7 50 -36 107 -59 116 -7 3 -19 1 -27 -3 -11 -7 -10
-15 4 -45 22 -47 21 -89 -3 -161 -25 -71 -21 -106 21 -164 l31 -42 -21 -57
c-11 -31 -20 -67 -20 -81 1 -65 -5 -75 -40 -78 -29 -3 -33 -1 -26 15 20 52 45
171 40 192 -6 23 -187 211 -204 211 -4 0 -7 -10 -7 -22 1 -19 -9 -26 -63 -44
-66 -23 -234 -41 -270 -29 -11 3 -21 11 -23 18 -2 8 -17 5 -48 -10 -37 -19
-40 -23 -19 -23 23 0 26 -6 43 -77 27 -122 34 -166 33 -198 -2 -26 -6 -30 -34
-33 -24 -2 -33 1 -33 12 0 8 5 18 10 21 23 14 -3 159 -41 223 -10 18 -19 40
-19 48 0 11 -16 14 -69 14 -39 0 -72 -4 -76 -9 -8 -14 25 -104 43 -117 17 -12
9 -68 -9 -62 -23 8 -89 165 -89 210 0 11 10 20 28 24 53 11 88 28 124 60 20
18 55 42 77 53 22 12 43 26 46 31 8 13 -107 -50 -116 -63 -11 -16 -29 3 -29
31 0 19 12 37 37 60 27 24 30 28 11 16 -16 -9 -28 -15 -28 -13 -1 2 -3 40 -6
83 -5 81 -23 142 -24 81 0 -17 -9 -47 -19 -66 -11 -20 -17 -46 -14 -57 7 -27
-34 -69 -55 -56 -8 6 -21 32 -29 59 -8 28 -19 64 -25 80 -6 17 -12 48 -12 71
-1 22 -7 48 -13 56 -17 19 -7 28 31 28 17 0 38 5 46 10 20 13 92 13 125 0z
m-325 -105 c0 -13 -68 -15 -555 -15 -487 0 -555 2 -555 15 0 13 68 15 555 15
487 0 555 -2 555 -15z m-1000 -161 l0 -105 -47 3 -48 3 0 85 c-1 119 -1 120
51 120 l44 0 0 -106z m170 1 l0 -105 -45 0 -45 0 0 105 0 105 45 0 45 0 0
-105z m180 -1 l0 -105 -47 3 -46 3 1 80 c1 44 1 90 2 103 0 19 5 22 45 22 l45
0 0 -106z m170 1 l0 -105 -45 0 -45 0 0 105 0 105 45 0 45 0 0 -105z m180 -1
l0 -105 -47 3 -46 3 1 80 c0 44 1 90 1 103 1 19 6 22 46 22 l45 0 0 -106z
m170 1 l0 -105 -45 0 -45 0 0 105 0 105 45 0 45 0 0 -105z m1266 -200 c19 -36
42 -69 51 -73 19 -11 19 -43 -1 -112 -9 -30 -16 -66 -16 -81 0 -30 -26 -99
-38 -99 -20 1 -35 19 -26 32 18 24 33 82 40 153 l6 71 -46 38 c-49 40 -57 66
-36 121 13 34 22 27 66 -50z m-1000 43 c6 -10 8 -47 5 -88 -1 -7 -217 -10
-626 -10 l-625 0 0 48 c0 27 3 52 7 55 3 4 282 7 619 7 458 0 615 -3 620 -12z
m845 -132 c12 -26 1 -48 -60 -122 -14 -17 -46 -59 -70 -92 -40 -56 -66 -73
-84 -56 -6 7 19 45 60 90 42 46 112 150 118 177 9 33 22 35 36 3z m-591 -54
c0 -7 -11 -34 -24 -60 -12 -26 -26 -62 -29 -79 -10 -49 -36 -83 -63 -83 -31 0
-30 6 6 60 38 57 55 114 59 205 l2 30 24 -30 c14 -16 25 -36 25 -43z m650 -26
c0 -7 -18 -32 -40 -56 -22 -23 -37 -47 -34 -52 8 -12 -15 -38 -32 -38 -9 0
-14 11 -14 29 0 21 14 44 51 85 49 52 69 62 69 32z m-507 -21 c15 -19 34 -35
42 -35 17 0 20 -35 5 -45 -22 -13 -100 69 -100 106 0 20 26 7 53 -26z m-1235
-382 l2 -163 -50 0 -50 0 0 43 c0 24 -5 48 -12 55 -7 7 -39 12 -75 12 l-63 0
0 -186 0 -186 33 4 32 3 0 -108 0 -108 -110 -2 -110 -2 -5 108 -5 107 33 0 32
0 0 185 0 185 -30 0 -30 0 0 110 0 110 203 -2 202 -3 3 -162z m396 137 c65
-40 66 -45 66 -377 0 -278 -1 -300 -20 -330 -30 -50 -73 -68 -165 -68 -89 0
-131 17 -169 68 -20 27 -21 42 -24 309 -4 300 1 341 48 383 55 50 195 58 264
15z m376 1 l29 -21 3 23 c3 19 9 22 48 22 l45 0 0 -165 0 -165 -45 0 -45 0 -3
42 c-4 51 -29 73 -82 73 -67 -1 -70 -9 -70 -180 0 -178 5 -190 75 -190 52 0
72 20 77 75 l3 40 45 0 45 0 0 -122 c0 -122 0 -122 -30 -154 -80 -85 -221 -76
-285 18 l-25 36 -3 307 c-3 303 -3 307 19 334 46 58 140 71 199 27z m610 -132
l0 -160 -47 3 c-48 3 -48 3 -51 41 -3 30 -9 40 -29 48 -14 5 -28 8 -30 6 -2
-3 -4 -85 -4 -183 l-1 -179 36 -3 36 -3 0 -105 c0 -92 -2 -104 -17 -104 -76
-1 -210 -2 -221 -1 -10 1 -12 26 -10 108 l3 107 38 0 38 1 0 180 c0 193 -2
201 -50 175 -16 -8 -21 -21 -21 -51 l0 -40 -47 3 -48 3 -3 145 c-1 79 0 150 2
157 4 10 53 13 216 13 l210 0 0 -161z m480 -9 l0 -170 -45 0 -45 0 0 50 c0 61
-16 72 -98 68 l-57 -3 0 -70 0 -70 63 -3 63 -3 -3 -37 -3 -37 -63 -3 -63 -3 3
-67 3 -67 61 0 c77 0 94 13 94 71 l0 44 45 0 45 0 0 -165 c0 -91 -3 -165 -7
-165 -24 -1 -371 -2 -386 -1 -16 1 -17 11 -15 108 l3 107 30 1 30 0 0 180 0
180 -32 3 -33 3 0 103 c0 56 3 106 7 109 3 4 96 7 205 7 l198 0 0 -170z m450
60 c0 -103 -1 -110 -20 -110 -11 0 -20 -3 -20 -7 0 -5 24 -87 54 -183 l53
-175 37 -3 37 -3 -3 -107 -3 -107 -110 1 -110 1 -3 106 -3 107 31 0 c35 0 35
1 14 63 l-16 47 -73 0 -73 0 -15 -47 c-18 -56 -16 -63 24 -63 l29 0 0 -104 c0
-91 -2 -105 -17 -109 -33 -8 -201 -8 -206 0 -3 5 -7 55 -8 113 l-3 105 24 -3
c14 -1 30 1 36 5 11 7 104 323 104 351 0 7 -9 12 -20 12 -19 0 -20 7 -20 110
l0 110 140 0 140 0 0 -110z m615 -50 l0 -155 -45 0 c-45 0 -45 0 -48 38 -3 30
-9 40 -28 47 -14 6 -30 10 -35 10 -6 0 -8 -71 -7 -182 l3 -183 38 -3 37 -3 0
-104 c0 -73 -4 -104 -12 -107 -7 -2 -62 -3 -123 -3 l-110 0 -3 108 c-2 81 0
107 10 108 7 1 24 2 38 2 l25 2 3 183 c2 171 1 182 -16 182 -30 0 -51 -23 -54
-60 -3 -34 -4 -35 -50 -38 l-48 -3 0 161 0 160 213 -2 212 -3 0 -155z m412
137 c58 -31 63 -47 63 -205 0 -84 -5 -152 -11 -164 -17 -31 -71 -48 -154 -48
l-75 0 0 -76 0 -76 37 4 36 3 1 -104 c1 -59 -3 -106 -9 -109 -5 -4 -58 -7
-118 -7 l-108 0 3 110 3 109 30 1 30 0 0 180 0 180 -32 3 -33 3 0 111 0 110
153 -4 c118 -3 159 -8 184 -21z"/>
<path d="M2151 2858 l-63 -42 38 -12 c22 -7 75 -24 120 -38 45 -14 87 -26 93
-26 13 0 -19 45 -85 118 l-39 42 -64 -42z"/>
<path d="M380 2765 c0 -22 4 -25 40 -25 36 0 40 3 40 25 0 23 -4 25 -40 25
-36 0 -40 -2 -40 -25z"/>
<path d="M558 2784 c-3 -3 -4 -14 -1 -25 4 -14 14 -19 39 -19 30 0 34 3 34 25
0 22 -4 25 -33 25 -19 0 -36 -3 -39 -6z"/>
<path d="M730 2765 c0 -22 4 -25 40 -25 36 0 40 3 40 25 0 23 -4 25 -40 25
-36 0 -40 -2 -40 -25z"/>
<path d="M904 2768 c2 -18 10 -24 39 -26 34 -3 37 -1 37 22 0 24 -4 26 -40 26
-36 0 -40 -2 -36 -22z"/>
<path d="M1080 2765 c0 -22 4 -25 40 -25 36 0 40 3 40 25 0 23 -4 25 -40 25
-36 0 -40 -2 -40 -25z"/>
<path d="M3810 2568 c0 -7 14 -21 30 -30 38 -21 38 -18 0 15 -17 15 -30 22
-30 15z"/>
<path d="M3301 2439 c-30 -5 -56 -10 -57 -12 -4 -4 -6 -33 -5 -79 l1 -48 85 0
85 0 0 75 0 75 -27 -1 c-16 -1 -52 -5 -82 -10z"/>
<path d="M2845 2219 c-4 -11 -5 -23 -2 -25 3 -3 33 -3 68 -1 47 2 58 5 42 11
-13 5 -23 16 -23 25 0 14 -2 14 -10 1 -8 -12 -13 -13 -30 -2 -28 17 -38 15
-45 -9z"/>
<path d="M3685 2123 c-15 -74 -23 -93 -51 -120 -19 -17 -56 -39 -84 -48 -27
-9 -50 -23 -50 -30 0 -21 -67 -73 -109 -85 -73 -19 -145 11 -175 74 -10 21
-30 42 -50 51 -19 9 -43 26 -55 39 l-21 23 20 44 c30 66 28 69 -40 69 l-60 0
0 -78 c0 -66 3 -82 20 -97 10 -9 35 -41 55 -70 l36 -52 121 -12 c105 -11 229
-9 293 4 12 3 26 18 33 38 16 44 113 137 143 137 13 0 31 5 39 10 13 9 13 11
0 20 -8 5 -20 10 -27 10 -24 0 -26 44 -7 138 2 12 0 22 -4 22 -5 0 -17 -39
-27 -87z"/>
<path d="M2855 2117 c36 -21 41 -21 52 -8 21 27 15 31 -39 31 l-53 0 40 -23z"/>
<path d="M2942 2110 c-15 -25 -15 -53 0 -68 22 -22 28 -13 28 38 0 54 -8 62
-28 30z"/>
<path d="M3960 2081 c0 -13 -10 -20 -31 -25 -42 -8 -36 -40 9 -44 32 -3 32 -3
32 42 0 25 -2 46 -5 46 -3 0 -5 -8 -5 -19z"/>
<path d="M2920 1997 c0 -22 31 -87 42 -87 19 0 7 58 -17 80 -20 19 -25 20 -25
7z"/>
<path d="M3828 1948 c-16 -4 -8 -6 25 -7 26 -1 47 2 47 7 0 9 -41 9 -72 0z"/>
<path d="M3714 1943 c10 -11 65 -12 71 -2 4 5 -13 9 -36 9 -23 0 -39 -3 -35
-7z"/>
<path d="M3645 1913 c-31 -34 -31 -37 0 -51 29 -13 85 -16 85 -4 0 13 -15 28
-33 35 -13 5 -16 13 -12 27 9 28 -10 25 -40 -7z"/>
<path d="M3010 1892 c0 -11 9 -22 20 -25 17 -4 18 -2 10 13 -15 28 -30 34 -30
12z"/>
<path d="M3891 1881 c-22 -22 -55 -81 -45 -81 18 0 134 74 134 86 0 22 -66 18
-89 -5z"/>
<path d="M3750 1876 c6 -8 18 -12 26 -9 23 9 16 23 -12 23 -22 0 -24 -2 -14
-14z"/>
<path d="M3814 1881 c3 -5 15 -7 26 -4 28 7 25 13 -6 13 -14 0 -23 -4 -20 -9z"/>
<path d="M3600 1850 c0 -5 5 -10 11 -10 5 0 7 5 4 10 -3 6 -8 10 -11 10 -2 0
-4 -4 -4 -10z"/>
<path d="M3920 1814 l-75 -44 89 0 89 0 -6 37 c-4 20 -10 39 -14 43 -4 4 -42
-13 -83 -36z"/>
<path d="M3821 1841 c-7 -5 -11 -15 -9 -22 3 -10 8 -7 17 9 13 24 12 26 -8 13z"/>
<path d="M2927 1822 c-2 -4 7 -25 19 -47 l24 -40 0 41 c0 33 -4 43 -20 47 -11
3 -22 2 -23 -1z"/>
<path d="M2998 1779 c-4 -48 3 -50 25 -5 15 32 15 34 -3 39 -15 4 -19 -2 -22
-34z"/>
<path d="M3730 1815 c0 -2 9 -9 20 -15 16 -9 18 -8 14 5 -5 13 -34 22 -34 10z"/>
<path d="M2877 1792 c-15 -17 -13 -19 29 -45 25 -15 44 -24 42 -20 -22 48 -43
83 -48 83 -4 0 -14 -8 -23 -18z"/>
<path d="M3063 1798 c-6 -7 -18 -28 -28 -47 l-17 -34 39 23 c54 33 55 35 35
53 -15 14 -21 15 -29 5z"/>
<path d="M3623 1803 c-29 -3 -43 -9 -43 -19 0 -11 18 -14 88 -14 l87 0 -30 20
c-16 11 -37 19 -45 18 -8 -1 -34 -3 -57 -5z"/>
<path d="M2846 1743 c-3 -4 -6 -15 -6 -25 0 -15 8 -18 45 -18 25 0 45 2 45 5
0 9 -78 44 -84 38z"/>
<path d="M3074 1725 l-39 -24 48 -1 c40 0 47 3 47 19 0 31 -13 32 -56 6z"/>
<path d="M3580 1736 c0 -17 21 -76 27 -76 8 0 143 81 143 85 0 3 -38 5 -85 5
-65 0 -85 -3 -85 -14z"/>
<path d="M3860 1743 c0 -5 32 -25 70 -46 l70 -38 10 26 c23 60 18 65 -70 65
-44 0 -80 -3 -80 -7z"/>
<path d="M3695 1684 c-33 -20 -64 -40 -69 -45 -11 -10 30 -59 49 -59 7 0 31
32 53 70 22 39 37 70 34 70 -4 -1 -34 -17 -67 -36z"/>
<path d="M3870 1664 c57 -101 52 -98 89 -60 l32 33 -68 39 c-37 22 -72 41 -77
43 -5 2 5 -23 24 -55z"/>
<path d="M3743 1634 l-42 -75 25 -9 c60 -23 64 -18 64 75 0 47 -1 85 -2 85 -2
0 -22 -34 -45 -76z"/>
<path d="M3810 1627 c0 -87 0 -87 26 -87 14 0 34 5 45 11 19 10 19 12 -16 77
-20 37 -41 71 -46 77 -5 5 -9 -26 -9 -78z"/>
<path d="M2842 1658 c4 -31 17 -31 63 -3 l40 24 -53 1 c-49 0 -53 -2 -50 -22z"/>
<path d="M3035 1670 c3 -5 11 -10 17 -10 5 0 23 -9 38 -20 25 -17 29 -18 34
-4 14 37 7 44 -45 44 -31 0 -48 -4 -44 -10z"/>
<path d="M2897 1626 c-37 -22 -37 -23 -17 -41 11 -10 22 -16 23 -14 18 23 47
79 40 78 -4 0 -25 -11 -46 -23z"/>
<path d="M3043 1610 c23 -42 41 -50 51 -24 8 22 10 20 -28 43 -46 29 -48 27
-23 -19z"/>
<path d="M2942 1592 l-22 -41 21 -6 c28 -9 31 -4 27 45 l-3 43 -23 -41z"/>
<path d="M3000 1585 c0 -45 5 -50 34 -39 14 5 13 11 -4 45 -11 21 -23 39 -25
39 -3 0 -5 -20 -5 -45z"/>
<path d="M883 1245 c-22 -15 -23 -22 -23 -166 0 -85 5 -159 10 -170 9 -16 22
-19 80 -19 100 0 100 0 100 183 0 84 -4 159 -9 166 -15 23 -130 27 -158 6z"/>
<path d="M2832 1173 c-12 -39 -22 -76 -22 -82 0 -6 19 -11 46 -11 l46 0 -7 32
c-4 17 -15 54 -24 82 l-18 50 -21 -71z"/>
<path d="M3840 1195 l0 -65 65 0 c60 0 66 2 76 24 7 14 9 40 5 59 -7 39 -23
47 -98 47 l-48 0 0 -65z"/>
</g>
</svg>
